<svg id="Layer_1" data-name="Layer 1" xmlns="http://www.w3.org/2000/svg" viewBox="0 0 50 50"><defs><style>.cls-1{fill:#fff;}</style></defs><path class="cls-1" d="M43.63,33.69a1.43,1.43,0,0,0-1.43,1.43v9.94H7.8V35.12a1.43,1.43,0,0,0-2.86,0V46.5a1.43,1.43,0,0,0,1.43,1.43H43.63a1.43,1.43,0,0,0,1.43-1.43V35.12A1.43,1.43,0,0,0,43.63,33.69Z"/><path class="cls-1" d="M24,41.78a1.42,1.42,0,0,0,2,0l17.2-17.2a1.44,1.44,0,0,0-1-2.45H33.6V3.5a1.43,1.43,0,0,0-1.44-1.43H17.83A1.44,1.44,0,0,0,16.39,3.5V22.13H7.8a1.44,1.44,0,0,0-1,2.45ZM17.83,25a1.43,1.43,0,0,0,1.43-1.43V4.94H30.73V23.57A1.43,1.43,0,0,0,32.16,25h6.58L25,38.74,11.26,25Z"/></svg>