<svg xmlns="http://www.w3.org/2000/svg" xmlns:xlink="http://www.w3.org/1999/xlink" viewBox="0 0 1134.11 954.5"><defs><style>.cls-1{isolation:isolate;}.cls-2{fill:url(#New_Gradient_Swatch_1);}.cls-3,.cls-5{fill:#fff;}.cls-3{opacity:0.4;mix-blend-mode:soft-light;}.cls-4{fill:#a7a9ac;mix-blend-mode:multiply;}.cls-6{font-size:159px;fill:#444;font-family:MVBoli, MV Boli;}</style><linearGradient id="New_Gradient_Swatch_1" x1="661.97" y1="866" x2="1338.03" y2="866" gradientUnits="userSpaceOnUse"><stop offset="0" stop-color="#5b188c"/><stop offset="1" stop-color="#e169e1"/></linearGradient></defs><g class="cls-1"><g id="Layer_1" data-name="Layer 1"><path class="cls-2" d="M1270.46,983.05l-34.09,19.7L982.06,1149.53l-44.71,86.11v-60.29l-33,19-6.47,3.73-32.24,18.65-1,.58c-90.1,52-202.7-13-202.7-117V631.72c0-104,112.6-169.07,202.7-117.05l48.71,28.13,357.08,206.14a138.79,138.79,0,0,1,17.22,11.72C1360.14,818.39,1354.39,934.6,1270.46,983.05Z" transform="translate(-435.94 -496.36)"/><path class="cls-3" d="M865.68,1216.75l-1,.58c-90.1,52-202.7-13-202.7-117V631.72c0-104,112.6-169.07,202.7-117.05l48.71,28.13a420.65,420.65,0,0,0-47.7,674Z" transform="translate(-435.94 -496.36)"/><path class="cls-3" d="M1270.46,983.05l-34.09,19.7A420.57,420.57,0,0,0,821.93,621.6a420.62,420.62,0,0,0-160,29.69V631.72c0-104,112.6-169.07,202.7-117.05l48.71,28.13,357.08,206.14a138.79,138.79,0,0,1,17.22,11.72C1360.14,818.39,1354.39,934.6,1270.46,983.05Z" transform="translate(-435.94 -496.36)"/><text x="-435.94" y="-496.36"/><path class="cls-4" d="M1090.13,833.84,1038,1028.27A113.88,113.88,0,0,1,943,1111.66v60.44l-5.62,3.25-33,19V1064.21a39.39,39.39,0,0,1,11.76-73.05v-.63c-24.73.59-42,19.73-42,43.28,0,16.25,6.93,30.36,20.78,37.79v36.28a114,114,0,0,1-77.29-138.64l5.87-21.87,101.69,27.25a15.54,15.54,0,0,0,8-30L831.54,917.35l5.63-21,101.69,27.25a15.54,15.54,0,0,0,8.06-30L845.23,866.33l5.63-21.07,101.69,27.25a15.52,15.52,0,0,0,8.06-30L858.92,815.32l5.63-21.12,101.68,27.25a15.49,15.49,0,1,0,8-29.93L873.11,764.39a114.06,114.06,0,0,1,217,69.45Z" transform="translate(-435.94 -496.36)"/><path class="cls-5" d="M1081.58,822.5,1029.46,1017a113.84,113.84,0,0,1-95.07,83.35v77.21l-38.59,22.27V1052.87a39.39,39.39,0,0,1,11.75-73v-.66c-24.7.62-42,19.73-42,43.28,0,16.27,6.9,30.37,20.79,37.81v36.25a114,114,0,0,1-77.31-138.63L815,936l101.68,27.25a15.53,15.53,0,0,0,8-30L823,906l5.64-21,101.68,27.25a15.53,15.53,0,0,0,8.06-30L836.65,855l5.63-21.08L944,861.18a15.54,15.54,0,0,0,8-30L850.34,804,856,782.88l101.68,27.25a15.51,15.51,0,0,0,8-30L864.52,753a114.08,114.08,0,0,1,217.06,69.46Z" transform="translate(-435.94 -496.36)"/><text class="cls-6" transform="translate(0 907.14)">Play your voice</text></g></g></svg>