<svg id="Layer_1" data-name="Layer 1" xmlns="http://www.w3.org/2000/svg" viewBox="0 0 50 50"><defs><style>.cls-1{fill:#fff;}</style></defs><path class="cls-1" d="M41,17.55A1.48,1.48,0,0,0,39.47,19v4.47A14.94,14.94,0,0,1,24.56,38.42h0A14.93,14.93,0,0,1,9.65,23.51V19a1.49,1.49,0,0,0-3,0v4.47a17.9,17.9,0,0,0,16.4,17.81v4.55h-6a1.49,1.49,0,1,0,0,3H32a1.49,1.49,0,0,0,0-3h-6V41.32a17.9,17.9,0,0,0,16.4-17.81V19A1.49,1.49,0,0,0,41,17.55Z"/><path class="cls-1" d="M24.56,33.94A10.45,10.45,0,0,0,35,23.51V11.58a10.44,10.44,0,0,0-20.88,0V23.51A10.45,10.45,0,0,0,24.56,33.94ZM17.1,11.58a7.46,7.46,0,0,1,14.91,0V23.51a7.46,7.46,0,0,1-14.91,0Z"/></svg>