<svg xmlns="http://www.w3.org/2000/svg" xmlns:xlink="http://www.w3.org/1999/xlink" viewBox="0 0 433.83 482.88"><defs><style>.cls-1{isolation:isolate;}.cls-2{fill:url(#New_Gradient_Swatch_2);}.cls-3{mix-blend-mode:multiply;fill:url(#New_Gradient_Swatch_10);}.cls-4{fill:url(#New_Gradient_Swatch_2-2);}</style><linearGradient id="New_Gradient_Swatch_2" x1="33.09" y1="250" x2="466.91" y2="250" gradientUnits="userSpaceOnUse"><stop offset="0" stop-color="#005fb1"/><stop offset="1" stop-color="#015197"/></linearGradient><linearGradient id="New_Gradient_Swatch_10" x1="72.78" y1="248.94" x2="184.2" y2="500.34" gradientUnits="userSpaceOnUse"><stop offset="0" stop-color="#005fb1"/><stop offset="1" stop-color="#015197" stop-opacity="0"/></linearGradient><linearGradient id="New_Gradient_Swatch_2-2" x1="33.09" y1="249.99" x2="183.37" y2="249.99" xlink:href="#New_Gradient_Swatch_2"/></defs><g class="cls-1"><g id="Layer_1" data-name="Layer 1"><path class="cls-2" d="M437.45,301l-316,182.43a58.26,58.26,0,0,1-33.93,7.81C58.6,489,33.09,465.08,33.09,432.42V400.28L205,301a59.26,59.26,0,0,0,13-10.13c25.63-26.36,21.28-72.13-13-91.94L33.09,99.73V67.59c0-45.39,49.1-73.74,88.39-51L437.45,199C476.74,221.63,476.74,278.34,437.45,301Z" transform="translate(-33.09 -8.56)"/><path class="cls-3" d="M218,290.89,87.55,491.26C58.6,489,33.09,465.08,33.09,432.42V400.28L205,301A59.26,59.26,0,0,0,218,290.89Z" transform="translate(-33.09 -8.56)"/><path class="cls-4" d="M153.9,301,33.09,370.76V129.21L153.9,199C193.19,221.63,193.19,278.34,153.9,301Z" transform="translate(-33.09 -8.56)"/></g></g></svg>